# xmcd
#
# Track frame offsets:
#	150
#	19494
#	34967
#	48608
#	66812
#	83818
#	100521
#	118529
#	134877
#	151021
#	167442
#	183551
#	198988
#	219198
#	235638
#
# Disc length: 3392 seconds
#
# Revision: 3
# Processed by: cddbd v1.5.2PL0 Copyright (c) Steve Scherf et al.
# Submitted via: audiograbber 1.83.01
#
DISCID=c60d3e0f
DTITLE=Alcymar Monteiro - O Maior Forró do Mundo
DYEAR=2001
DGENRE=Forró
TTITLE0=Casa Abandonada
TTITLE1=Chorar Pra Que
TTITLE2=Energia dos Cristais
TTITLE3=Até Parece Mentira
TTITLE4=Avelã
TTITLE5=Dia da Mulher
TTITLE6=Caravana
TTITLE7=Forró da Burguesia
TTITLE8=Aluá
TTITLE9=Dinheiro Não Tenho, Bonito Não Sou
TTITLE10=Vaquejada Feliz
TTITLE11=It's A Long Way - Prece Ao Vento
TTITLE12=Papa Jerimum
TTITLE13=Made In Nordeste
TTITLE14=O Maior do Mundo
EXTD=Dados Por - Dayvison de Azevedo - Recife - PE\nFacebook - https://www.face
EXTD=book.com/profile.php?id=100006142608616
EXTT0=
EXTT1=
EXTT2=
EXTT3=
EXTT4=
EXTT5=
EXTT6=
EXTT7=
EXTT8=
EXTT9=
EXTT10=
EXTT11=
EXTT12=
EXTT13=
EXTT14=
PLAYORDER=
